<svg id="Layer_1" xmlns="http://www.w3.org/2000/svg" viewBox="0 0 64 64"><style>.st0{fill:#8bc53f}</style><path class="st0" d="M14.584 21.44a3.228 3.228 0 0 0 4.557-.234c3.379-3.74 7.946-5.799 12.858-5.799s9.478 2.059 12.858 5.801a3.22 3.22 0 0 0 2.398 1.065c.77 0 1.544-.275 2.16-.831a3.22 3.22 0 0 0 .234-4.553c-4.553-5.038-10.986-7.928-17.65-7.928-6.663 0-13.095 2.89-17.648 7.926a3.22 3.22 0 0 0 .233 4.553zM11.69 39.551a1.775 1.775 0 0 0 1.451-2.045c-.199-1.16-.3-2.354-.3-3.545a20.51 20.51 0 0 1 3.054-10.812 4.174 4.174 0 0 1-2.849-2.136A24.035 24.035 0 0 0 9.292 33.96c0 1.39.117 2.784.351 4.142a1.772 1.772 0 0 0 2.047 1.449zM50.064 22.16a4.206 4.206 0 0 1-1.96.991 20.517 20.517 0 0 1 3.052 10.812c0 1.191-.101 2.385-.298 3.545a1.77 1.77 0 0 0 1.753 2.07c.848 0 1.599-.61 1.747-1.474.232-1.357.351-2.751.351-4.142 0-4.779-1.384-9.227-3.752-12.945-.23.423-.527.811-.893 1.143z"/><path class="st0" d="M17.05 27.46c-1.757 0-3.18 1.501-3.18 3.352v9.387c0 1.852 1.423 3.352 3.18 3.352 1.757 0 3.18-1.501 3.18-3.352v-9.387c.001-1.851-1.423-3.352-3.18-3.352zM43.768 40.198c0 1.852 1.425 3.354 3.18 3.354 1.757 0 3.178-1.501 3.178-3.354v-9.387c0-1.852-1.423-3.354-3.178-3.354-1.757 0-3.18 1.501-3.18 3.354v9.387zM30.575 50.264c-1.119 0-2.03.909-2.03 2.028v.72c0 1.117.911 2.028 2.03 2.028h2.849c1.119 0 2.03-.909 2.03-2.028v-.72a2.032 2.032 0 0 0-2.03-2.028h-2.849z"/><path class="st0" d="M52.942 40.746a3.042 3.042 0 0 1-.835-.023 2.999 2.999 0 0 1-.755-.236c-.918 3.278-2.79 5.891-5.571 7.774-2.297 1.556-5.226 2.619-8.714 3.165.068.283.101.573.101.868v.728c3.034-.462 5.703-1.299 7.94-2.488 4.047-2.156 6.679-5.445 7.834-9.788z"/><circle cx="32" cy="32" r="29" fill="none" stroke="#e40076" stroke-width="3" stroke-miterlimit="10"/></svg>